<?xml version="1.0" standalone="no"?>
<!DOCTYPE svg PUBLIC "-//W3C//DTD SVG 1.1//EN" "http://www.w3.org/Graphics/SVG/1.1/DTD/svg11.dtd" >
<!--
2013-9-30: Created.
-->
<svg>
<metadata>
Created by iconfont
</metadata>
<defs>

<font id="iconfont" horiz-adv-x="1024" >
  <font-face
    font-family="iconfont"
    font-weight="500"
    font-stretch="normal"
    units-per-em="1024"
    ascent="896"
    descent="-128"
  />
    <missing-glyph />
    
    <glyph glyph-name="x" unicode="x" horiz-adv-x="1001"
d="M281 543q-27 -1 -53 -1h-83q-18 0 -36.5 -6t-32.5 -18.5t-23 -32t-9 -45.5v-76h912v41q0 16 -0.5 30t-0.5 18q0 13 -5 29t-17 29.5t-31.5 22.5t-49.5 9h-133v-97h-438v97zM955 310v-52q0 -23 0.5 -52t0.5 -58t-10.5 -47.5t-26 -30t-33 -16t-31.5 -4.5q-14 -1 -29.5 -0.5
t-29.5 0.5h-32l-45 128h-439l-44 -128h-29h-34q-20 0 -45 1q-25 0 -41 9.5t-25.5 23t-13.5 29.5t-4 30v167h911zM163 247q-12 0 -21 -8.5t-9 -21.5t9 -21.5t21 -8.5q13 0 22 8.5t9 21.5t-9 21.5t-22 8.5zM316 123q-8 -26 -14 -48q-5 -19 -10.5 -37t-7.5 -25t-3 -15t1 -14.5
t9.5 -10.5t21.5 -4h37h67h81h80h64h36q23 0 34 12t2 38q-5 13 -9.5 30.5t-9.5 34.5q-5 19 -11 39h-368zM336 498v228q0 11 2.5 23t10 21.5t20.5 15.5t34 6h188q31 0 51.5 -14.5t20.5 -52.5v-227h-327z" />
    

    
    <glyph glyph-name="fuxi" unicode="&#58885;" d="M1089.225795 345.602249V788.040063c0 56.0492-52.180636 107.959937-107.959937 107.959937h-809.699525c-55.779301 0-107.959937-51.910736-107.959937-107.959937v-442.437814C27.367844 327.411 0 289.121209 0 248.546266V-20.040063c0-56.0492 52.180636-107.959937 107.959937-107.959937h936.894324c55.779301 0 107.959937 51.910736 107.959937 107.959937V248.546266c0 40.574943-27.367844 78.864734-63.588403 97.055983zM177.684063 847.418028l803.581795-5.397996a54.321842 54.321842 0 0 0 53.979969-53.979969v-431.53386h-917.659463V788.040063c0 29.635003 30.642629 59.377965 60.097699 59.377965z m921.150166-867.458091a54.321842 54.321842 0 0 0-53.979968-53.979969H107.959937a54.321842 54.321842 0 0 0-53.979969 53.979969V248.546266a54.321842 54.321842 0 0 0 53.979969 53.979968h936.894324a54.303848 54.303848 0 0 0 53.979968-53.979968zM361.953681 506.048708h428.421016A26.306238 26.306238 0 0 1 816.896855 532.067053c0 15.582218-10.400141 25.964365-26.000352 25.964365H362.925321c-15.762151 0-28.627377-13.530979-26.792058-29.167176a26.126305 26.126305 0 0 1 25.820418-22.815534zM361.953681 637.112072h428.421016A26.306238 26.306238 0 0 1 816.896855 663.130416c0 15.582218-10.400141 25.964365-26.000352 25.964365H362.925321c-15.762151 0-28.627377-13.530979-26.792058-29.167176a26.126305 26.126305 0 0 1 25.820418-22.815533zM801.76447 236.148867H351.067721c-56.175154 0-100.168828-43.993674-100.168828-100.150835v-50.075417c0-56.175154 43.993674-100.168828 100.168828-100.168828h450.696749c56.15716 0 100.150835 43.993674 100.150835 100.168828v50.075417c0 56.15716-43.993674 100.150835-100.150835 100.150835z m50.075418-150.226252c0-28.573397-21.591987-50.075417-50.075418-50.075418H351.067721c-28.555403 0-50.093411 21.591987-50.093411 50.075418v50.075417c0 28.555403 21.591987 50.075417 50.093411 50.075417h450.696749c28.555403 0 50.075417-21.591987 50.075418-50.075417z"  horiz-adv-x="1152" />

    
    <glyph glyph-name="yuxi" unicode="&#58886;" d="M1104.842105 653.473684c-13.34793 0-26.947368-13.509614-26.947368-26.947368v-646.736842c0.98807-40.762386-35.283088-53.894737-53.894737-53.894737H296.421053c-13.312 0-26.947368-13.545544-26.947369-26.947369s17.964912-26.947368 31.223018-26.947368h749.136842A82.333193 82.333193 0 0 1 1131.789474-45.523088V626.526316c-0.431158 13.042526-13.868912 26.947368-26.947369 26.947368z m-80.842105-565.894737V788.210526c0 55.960702-52.098246 107.789474-107.789474 107.789474H107.789474C52.098246 896 0 844.171228 0 788.210526v-700.631579c0-55.960702 52.098246-107.789474 107.789474-107.789473h808.421052c55.691228 0 107.789474 51.828772 107.789474 107.789473z m-970.105263 0V788.210526a54.23607 54.23607 0 0 0 53.894737 53.894737h808.421052a54.23607 54.23607 0 0 0 53.894737-53.894737v-700.631579a54.23607 54.23607 0 0 0-53.894737-53.894736H107.789474a54.23607 54.23607 0 0 0-53.894737 53.894736zM278.923228 548.774175h427.726597a26.300632 26.300632 0 0 0 26.462315-25.995228c0-15.557614-10.401684-25.923368-25.959298-25.923368H279.875368c-15.719298 0-28.564211 13.509614-26.731789 29.121123a26.085053 26.085053 0 0 0 25.779649 22.797473zM278.923228 418.995649h297.966035A26.264702 26.264702 0 0 0 603.333614 392.982456c0-15.557614-10.383719-25.923368-25.941333-25.923368H279.875368c-15.719298 0-28.564211 13.509614-26.731789 29.121123a26.067088 26.067088 0 0 0 25.779649 22.815438z"  horiz-adv-x="1131" />

    
    <glyph glyph-name="baogao" unicode="&#58887;" d="M1089.225795 133.083114V788.040063c0 56.0492-52.180636 107.959937-107.959937 107.959937h-809.699525c-55.779301 0-107.959937-51.910736-107.959937-107.959937v-654.956949C27.367844 114.909858 0 76.5301 0 35.919171v-55.959234c0-56.0492 52.180636-107.959937 107.959937-107.959937h936.894324c55.779301 0 107.959937 51.910736 107.959937 107.959937V35.919171c0 40.61093-27.367844 78.990687-63.588403 97.163943z m-971.639431 654.956949a54.321842 54.321842 0 0 0 53.979969 53.979969h809.699525a54.321842 54.321842 0 0 0 53.979969-53.979969v-644.160956h-917.659463z m981.247865-808.080126a54.321842 54.321842 0 0 0-53.979968-53.979969H107.959937a54.321842 54.321842 0 0 0-53.979969 53.979969V35.919171a54.321842 54.321842 0 0 0 53.979969 53.979968h936.894324a54.303848 54.303848 0 0 0 53.979968-53.979968zM815.601335 748.70666l-187.760323-174.931085a0.2699 0.2699 0 0 0-0.37786 0l-110.083148 112.386295c-16.62583 18.857002-35.086979 7.503216-40.107117 2.501071l-125.3055-130.091723c-21.088174-22.437674 9.806361-51.22699 30.066842-32.495941l112.584221 117.370444a0.287893 0.287893 0 0 0 0.395853 0l112.566228-117.352451c15.942084-13.315059 24.488912-3.904551 37.588051 7.521209L845.686171 716.174732c24.147039 25.478545-12.901212 52.072676-30.084836 32.531928zM754.100158 302.076401H326.146969c-15.744157 0-28.609383-13.530979-26.774064-29.167176A26.108311 26.108311 0 0 1 325.193323 250.039712h428.403022a26.324231 26.324231 0 0 1 26.504165 26.018345c-0.017993 15.636198-10.418134 26.018345-26.000352 26.018344zM325.193323 380.059462h298.437252a26.324231 26.324231 0 0 1 26.486171 26.036338c0 15.582218-10.400141 25.964365-25.982358 25.964365H326.146969c-15.744157 0-28.609383-13.530979-26.774064-29.167176a26.126305 26.126305 0 0 1 25.820418-22.833527z"  horiz-adv-x="1152" />

    
    <glyph glyph-name="zhibo" unicode="&#58888;" d="M1102.389539 683.393196a33.341558 33.341558 0 0 1-10.288036-1.626417l-121.243748-39.015108v139.94755A113.470986 113.470986 0 0 1 857.50024 896H113.357515A113.470986 113.470986 0 0 1 0 782.642485v-797.303882a113.470986 113.470986 0 0 1 113.357515-113.338603h744.142725a113.470986 113.470986 0 0 1 113.357515 113.338603v139.947549l121.243748-39.015107a33.341558 33.341558 0 0 1 10.288036-1.626418c59.364237 0 107.665054 50.853913 107.665054 113.357515V570.035681c0 62.503601-48.300816 113.357515-107.665054 113.357515z m-198.763343-698.054593a46.163779 46.163779 0 0 0-46.125956-46.107044H113.357515a46.163779 46.163779 0 0 0-46.125956 46.107044V782.642485a46.182691 46.182691 0 0 0 46.125956 46.125956h744.142725a46.182691 46.182691 0 0 0 46.125956-46.125956zM1142.804122 197.964319c0-23.734348-15.772467-43.327005-35.932479-45.842279l-137.564658 44.272597v375.210726l137.564658 44.272597c20.216747-2.534185 35.932479-22.126842 35.932479-45.842279zM678.537584 430.768958c-22.145754 13.238282-265.106047 159.767148-278.193034 165.024637-72.205371 28.972925-81.415432-27.025006-81.415432-46.78787v-330.484246c0-81.888228 72.054076-51.686034 80.375281-46.920253 19.290068 10.987774 267.659144 156.968197 279.460127 165.762199 60.688066 44.915599 16.377646 83.590293-0.226942 93.405533z m-292.376907-189.004839V526.103498c51.780593-30.693902 188.078159-111.579803 239.537251-142.103498-49.983969-29.786134-186.754331-111.050271-239.537251-142.179145z"  horiz-adv-x="1210" />

    
    <glyph glyph-name="ziliao" unicode="&#58889;" d="M1022.200351 557.486116v1.061793a31.547838 31.547838 0 0 1-63.07768-1.061793v-441.921687c0-0.827838 0-1.63768 0.125976-2.447522v-134.037821a44.127381 44.127381 0 0 0-44.145378-44.091388H108.878735A44.127381 44.127381 0 0 0 64.787346-20.920914v755.852373A44.127381 44.127381 0 0 0 108.878735 779.022847h29.298277c0.827838 0 1.655677-0.125975 2.501512-0.125975h441.939683a31.547838 31.547838 0 0 1 0.701863 63.113673H108.878735A107.205062 107.205062 0 0 1 1.799649 734.913462v-755.852372A107.205062 107.205062 0 0 1 108.878735-128h806.24253a107.205062 107.205062 0 0 1 107.079086 107.079086V557.486116zM546.589244 424.006186c-9.898067 0-16.502777 3.293357-23.107487 9.898067a31.907768 31.907768 0 0 0 0 46.214974L929.464464 886.101933a31.925764 31.925764 0 0 0 46.214974 0 31.925764 31.925764 0 0 0 0-46.214973L569.696731 430.610896c-6.60471-6.60471-13.20942-6.60471-23.107487-6.60471zM235.124077 131.473322h428.49631a26.328858 26.328858 0 0 1 26.490826 26.040914c0 15.584956-10.419965 25.968928-26.004921 25.968927H236.095888c-15.764921 0-28.632408-13.533357-26.796767-29.172302a26.130896 26.130896 0 0 1 25.824956-22.837539zM235.124077 261.47993h298.489702a26.310861 26.310861 0 0 1 26.490826 26.022917c0 15.584956-10.401968 25.968928-25.986925 25.968928h-298.021792c-15.764921 0-28.632408-13.533357-26.796767-29.172302a26.1129 26.1129 0 0 1 25.824956-22.819543z"  horiz-adv-x="1024" />

    
    <glyph glyph-name="ziliaoxiazai" unicode="&#58890;" d="M914.778477 709.597718h-95.148572c-19.033389 0-31.728439-12.676678-31.728439-31.710067S800.596516 646.14084 819.629905 646.14084h95.148572c50.743456 0 95.148573-31.728439 95.148573-76.133556v-394.997937c0-44.405117-10.747618-64.76129-63.420134-63.438505h-832.251466c-44.000933 2.461848-50.743456 19.033389-50.743456 63.438505v394.997937C63.438506 614.449145 107.843623 646.14084 158.587079 646.14084h95.148572c19.033389 0 31.728439 12.676678 31.728439 31.710067s-12.69505 31.710067-31.728439 31.710067H158.587079c-85.631878 0-158.587079-60.26015-158.587079-139.627178v-394.997937c0-79.293539 31.710067-126.877012 117.360317-126.877011h829.146599s129.412347-3.215099 126.76678 126.877011v394.997937c0.09186 79.403771-72.86334 139.663922-158.495219 139.663922zM364.922978 517.059189a36.964458 36.964458 0 0 1-52.268332-52.268332L511.49477 265.840501a36.119346 36.119346 0 0 1 52.268332 0l192.777365 192.905969a36.964458 36.964458 0 0 1-52.268332 52.268332L573.096076 381.584082V858.668102a37.331898 37.331898 0 1 1-74.663796 0V381.584082zM121.071461 6.005347l831.27775 0 0-53.609488-831.27775 0 0 53.609488ZM228.345551-74.390513l616.72957 0 0-53.609487-616.72957 0 0 53.609487Z"  horiz-adv-x="1073" />

    
    <glyph glyph-name="rili" unicode="&#58891;" d="M930.896019 833.936671h-93.086007c-18.620796 0-31.022678-12.401882-31.022678-31.022678s12.401882-31.040652 31.022678-31.040652h93.086007c49.643474 0 93.086007-31.022678 93.086007-74.465211v-701.281471c0-43.442533-10.514639-63.357439-62.045355-62.06333h-850.157973c-43.047111 2.426455-49.643474 18.620796-49.643474 62.06333V697.40813c0 43.442533 43.442533 74.465211 93.086007 74.465211h93.086008c18.620796 0 31.040652 12.419855 31.040651 31.040652s-12.419855 31.022678-31.040651 31.022678H155.149337C71.373727 833.936671 0 774.982799 0 697.40813v-701.281471c0-77.574668 31.022678-124.108685 114.816261-124.108685h847.12041s126.625009-3.145405 124.018816 124.108685V697.40813c0.089869 77.574668-71.265885 136.52854-155.059468 136.528541zM868.850663 399.511339H217.23064c-18.620796 0-31.040652-12.401882-31.040652-31.022678s12.419855-31.022678 31.040652-31.022678H868.850663c18.620796 0 31.040652 12.401882 31.040652 31.022678s-12.419855 31.022678-31.040652 31.022678zM868.850663 182.316647H217.23064c-18.620796 0-31.040652-12.419855-31.040652-31.040652s12.419855-31.022678 31.040652-31.022678H868.850663c18.620796 0 31.040652 12.401882 31.040652 31.022678s-12.419855 31.040652-31.040652 31.040652zM465.519905 740.850663h155.149336c18.620796 0 31.040652 12.419855 31.040652 31.022678s-12.419855 31.040652-31.040652 31.040652H465.519905c-18.620796 0-31.022678-12.419855-31.022678-31.040652s12.34796-31.022678 31.022678-31.022678zM372.379976 554.678649c18.620796 0 31.022678 12.401882 31.022678 31.022678V864.977322c0 18.602822-12.401882 31.022678-31.022678 31.022678s-31.022678-12.419855-31.022678-31.022678v-279.275995c0-18.620796 12.401882-31.022678 31.022678-31.022678zM713.701327 554.678649c18.620796 0 31.040652 12.401882 31.040652 31.022678V864.977322C744.741979 883.580145 732.322123 896 713.701327 896s-31.022678-12.419855-31.022678-31.022678v-279.275995c0-18.620796 12.419855-31.022678 31.022678-31.022678z"  horiz-adv-x="1086" />

    
    <glyph glyph-name="xiangji" unicode="&#58892;" d="M813.132561 828.033196c29.380187 0 42.98886-18.508561 64.54071-46.625495l37.112822-47.104c26.891963-31.73443 35.217944-46.625495 64.540711-46.625495h108.256897a68.043364 68.043364 0 0 0 67.966804-67.966804V7.895327a68.043364 68.043364 0 0 0-67.966804-67.966804H135.895327A68.043364 68.043364 0 0 0 67.966804 7.895327V619.711402A68.062505 68.062505 0 0 0 135.895327 687.678206h108.256897c29.303626 0 38.395215 14.31686 64.52157 46.625495l37.112823 47.104c23.083065 29.590729 35.179664 46.625495 64.54071 46.625495h402.805234m0 67.966804H410.384748C351.758355 896 332.560748 863.767925 281.360748 802.76815l-37.151103-47.104H135.895327a136.335551 136.335551 0 0 1-135.895327-135.895328V7.895327a136.335551 136.335551 0 0 1 135.895327-135.895327h951.688374a136.335551 136.335551 0 0 1 135.895327 135.895327V619.711402a136.335551 136.335551 0 0 1-135.895327 135.895327h-108.256897l-37.131963 47.104C891.090542 863.633944 871.758953 896 813.132561 896zM611.758654 552.491065A203.919551 203.919551 0 1 0 407.839103 348.590654a204.149234 204.149234 0 0 0 203.919551 203.900411m0 67.966804A271.905495 271.905495 0 1 1 883.66415 348.590654a271.886355 271.886355 0 0 1-271.905496 271.790654z"  horiz-adv-x="1223" />

    
    <glyph glyph-name="xuexiao" unicode="&#58893;" d="M0 536.903709a43.797927 43.797927 0 0 1 23.946939-39.055247L298.213939 357.184899l1.203635-323.544159a87.721606 87.721606 0 0 1 62.409351-83.805303l200.683609-61.079963a385.702004 385.702004 0 0 1 229.732521 1.509034l186.83283 59.409247a87.703642 87.703642 0 0 1 61.349433 83.805302V350.897256l156.292848 81.254316V179.208664a72.577368 72.577368 0 1 1 70.349746 0V468.817515l56.103743 29.192629a44.067397 44.067397 0 0 1 0 78.110495L734.037443 882.14922a123.345597 123.345597 0 0 1-112.979968 0.3054L23.946939 576.228427A44.444656 44.444656 0 0 1 0 536.903709zM368.88705 321.129756l252.170425-129.345805a122.824621 122.824621 0 0 1 112.979968 0.287435L970.093537 314.68043V33.33534a17.641331 17.641331 0 0 0-12.269887-16.761061l-186.617253-59.283494a316.178634 316.178634 0 0 0-188.108323-1.185669l-200.683609 61.079963a17.533542 17.533542 0 0 0-12.431569 16.761061zM101.913715 537.209109L653.232244 819.901551a52.528769 52.528769 0 0 0 48.32503-0.143717l544.132651-282.548725-544.330262-282.692443a52.564698 52.564698 0 0 0-48.342995-0.143717z"  horiz-adv-x="1346" />

    
    <glyph glyph-name="biaoqian" unicode="&#58894;" d="M747.951548 695.176818a90.3963 90.3963 0 1 0-90.3963-90.3963 90.576265 90.576265 0 0 0 90.3963 90.3963zM393.870878 759.064309C474.65706 838.662723 532.983639 896.197457 633.08004 895.999496h162.760131c197.223383 0 230.53486-73.101686 230.53486-236.833627v-173.594009c0-91.62006-17.744526-118.614775-87.300906-186.191543l-403.337025-394.482758c-45.117166-43.929398-130.636421-43.731437-175.555625-0.197962L35.669016 220.753712C13.011452 242.619431 0 274.347219 0 307.838661S13.209414 373.453813 35.992952 395.697458L393.870878 759.064309z m21.289832-797.603826c7.882457-7.684495 19.904103-12.021646 32.897558-12.021646s24.835137 4.337151 32.717594 12.021646L884.112887 356.10521c61.673924 59.694312 63.437579 67.180846 63.437578 129.574629v173.683991c0 135.945381-10.239995 157.829096-151.512333 157.829097h-162.760131c-65.021269 0-103.443745-35.075132-183.834004-114.475585l-32.897559-32.12371L91.782029 339.76441c-8.47634-8.080418-12.795495-19.50818-12.795495-31.925749s4.13919-23.233451 11.625724-30.59401l324.512459-315.838157z"  horiz-adv-x="1026" />

    
    <glyph glyph-name="lishi" unicode="&#58895;" d="M512 896C229.293216 896 0 666.706784 0 384S229.293216-128 512-128 1024 101.293216 1024 384 794.706784 896 512 896z m0-952.01406C268.885483-56.01406 71.805975 141.011459 71.805975 384S268.921476 824.194025 512 824.194025s440.194025-197.115501 440.194025-440.194025S754.988541-56.01406 512-56.01406z m254.470299 442.101652H511.568084v255.910018c0 37.594657-36.694833 37.594657-36.694833 37.594657s-36.640844 0-36.514868-37.594657V351.786292a39.592267 39.592267 0 0 1 5.974833-22.189666c4.91304-8.620316 14.289209-16.84471 32.087733-16.84471H766.650264c37.63065 0 37.63065 36.694833 37.63065 36.694833s-0.125975 36.766819-37.792619 36.694833z"  horiz-adv-x="1024" />

    
    <glyph glyph-name="zhuanzhu" unicode="&#58896;" d="M425.646713 502.038767l-15.008849-92.284626a19.525901 19.525901 0 0 1 6.424651-15.026845 13.245219 13.245219 0 0 1 15.026845-2.14155l83.700428 42.920989 83.682432-42.920989a7.918338 7.918338 0 0 1 6.442648-2.141551 14.666921 14.666921 0 0 1 15.026845 15.008849 7.846353 7.846353 0 0 1-2.159547 6.442648l-15.008849 87.983529 66.586021 64.390482c4.301097 4.283101 6.442647 8.584198 4.301097 15.008849a25.932556 25.932556 0 0 1-10.797733 10.797733l-92.284626 12.867299L530.888619 686.590023a14.396978 14.396978 0 0 1-12.867299 8.584198c-6.442647 0-10.797733-2.14155-12.885295-8.584198L464.302597 602.889595 371.999975 590.058289a10.131873 10.131873 0 0 1-10.797733-10.797734c-2.14155-4.283101 0-10.797733 4.283101-15.008849zM1035.862606 670.357431a39.753654 39.753654 0 0 1-39.879628 39.591688h-107.761377V856.402373a39.447718 39.447718 0 0 1-40.131575 39.591688H187.466716A39.591688 39.591688 0 0 1 147.569092 856.402373v-146.47125H39.59176a39.699666 39.699666 0 0 1-39.591688-39.591688v-220.003813a231.071489 231.071489 0 0 1 66.999934-162.901801h0.305936a233.159051 233.159051 0 0 1 139.398735-67.287874c59.963411-92.752528 160.346337-156.675108 271.473008-168.570611v-99.825043h-173.33961a39.879628 39.879628 0 1 1 0-79.741259h426.186528a39.879628 39.879628 0 1 1 0 79.741259H557.882951v99.825043c110.856727 11.895503 211.527592 75.818083 271.473008 168.570611a233.608957 233.608957 0 0 1 137.04123 65.326286l2.249528 1.961588a231.341433 231.341433 0 0 1 67.30587 162.901801zM122.878275 325.225887l-1.925596 1.925596c-30.593577 31.81732-49.669572 73.532563-49.669572 120.376728V650.417617h76.447951v-244.316709a426.510459 426.510459 0 0 1 17.186392-111.432606 175.841084 175.841084 0 0 0-42.039175 30.557585z m700.736889 87.92954v-3.059358a305.017965 305.017965 0 0 0-34.516753-134.17983l-0.611872-1.799622c-52.944885-98.493323-157.682896-162.739835-270.735162-162.739835s-217.754285 64.246512-270.123291 162.739835l-1.187751 1.799622a303.776226 303.776226 0 0 0-33.904882 137.239188V834.105054h611.079711z m142.99798 34.372784c0-46.790177-19.129984-88.559408-49.687569-120.376728l-1.9076-1.925596a175.931065 175.931065 0 0 0-42.05717-30.593577 427.374278 427.374278 0 0 1 17.204388 111.432606V650.417617h76.447951z"  horiz-adv-x="1035" />

    
    <glyph glyph-name="xiazaiAPP" unicode="&#58897;" d="M907.048459 846.94229h-94.344552c-18.872554 0-31.460329-12.569558-31.460329-31.442112s12.587775-31.442112 31.460329-31.442112h94.344552c50.314666 0 94.344553-31.460329 94.344553-75.490216v-710.762968c0-44.029887-10.656799-64.214047-62.884224-62.884224h-825.218814c-43.629118 2.441045-50.314666 18.854337-50.314666 62.884224V708.56785c0 44.029887 44.029887 75.490216 94.344553 75.490216h94.344552c18.872554 0 31.460329 12.569558 31.460329 31.442112s-12.587775 31.442112-31.460329 31.442112H157.246994C72.338718 846.94229 0 787.191347 0 708.56785v-710.762968c0-78.623497 31.442112-125.786665 116.368605-125.786665h822.140183s128.318793-3.187931 125.695581 125.786665V708.56785c0.091084 78.623497-72.247634 138.37444-157.15591 138.37444zM231.352736 472.132641a36.652103 36.652103 0 0 1-51.826656-51.826657L507.172561 92.641287a35.777699 35.777699 0 0 1 51.826656 0l325.770156 325.806589a36.652103 36.652103 0 1 1-51.826656 51.826656L568.253327 207.406817V858.983562a37.016438 37.016438 0 1 1-74.032876 0V207.406817z"  horiz-adv-x="1064" />

    
    <glyph glyph-name="xuankezixun" unicode="&#58898;" d="M933.794597 517.614686h-46.448293v17.779692a358.265391 358.265391 0 0 1-105.885894 254.719415C713.031628 858.358329 622.751329 895.999687 526.740995 895.999687a358.191693 358.191693 0 0 1-254.719416-105.885894c-68.170838-68.410357-105.885894-158.764355-105.885893-254.719415v-17.779692h-47.903832C48.384381 517.614686-0.311707 468.918598 0.001511 399.071126v-203.296494a118.561985 118.561985 0 0 1 118.54356-118.54356h86.190049A38.452038 38.452038 0 0 1 243.205582 115.683109V532.704393c0 154.508283 122.541688 282.669459 276.994697 286.170124 159.335516 3.68491 290.094553-124.955304 290.094553-283.480139v-419.563872c0-0.958077 0.165821-2.081974 0.165821-3.040051v-0.479038a19.050986 19.050986 0 0 1 0.313218-2.87423 0.589586 0.589586 0 0 0 0.165821-0.479039 19.824817 19.824817 0 0 1 0.644859-2.892654v-0.165821a14.739641 14.739641 0 0 1 0.792256-2.726834 0.497463 0.497463 0 0 0 0.165821-0.313217c0.331642-0.792256 0.644859-1.750332 0.958076-2.561012 0-0.165821 0.165821-0.313217 0.165821-0.479039 0.479038-0.958077 0.81068-1.842455 1.289719-2.561012 0-0.165821 0.147396-0.165821 0.147396-0.331642 0.479038-0.792256 0.976501-1.437115 1.45554-2.229371 0-0.165821 0.147396-0.165821 0.147396-0.331642a21.003988 21.003988 0 0 1 1.602936-2.229371c0.165821-0.165821 0.165821-0.331642 0.331642-0.479038a19.787968 19.787968 0 0 1 1.750332-2.081974l1.123898-1.123898v-11.533769c0.350066-102.864267-122.541688-118.211918-172.785438-120.183345a64.485928 64.485928 0 1 1-3.463816-48.843484c54.168179 0.552737 216.064708 15.126556 227.524779 169.026829v0.313218h61.022112a118.54356 118.54356 0 0 1 118.54356 118.54356V399.071126a118.54356 118.54356 0 0 1-118.561984 118.54356zM166.135686 154.135147h-47.903832a41.786881 41.786881 0 0 0-41.639485 41.65791V399.071126c0 34.435486 22.588499 41.639485 41.639485 41.639485h47.903832z m809.31682 41.639485a41.694759 41.694759 0 0 0-41.657909-41.657909h-46.614114V440.710611h46.614114c19.06941 0 41.657909-7.203999 41.657909-41.639485z"  horiz-adv-x="1052" />

    
    <glyph glyph-name="guanyuliaojie" unicode="&#58899;" d="M517.128998 896C237.175677 896 0 657.258629 0 377.881195S237.175677-128 517.128998-128 1024 98.485764 1024 377.881195 797.064323 896 517.128998 896z m-4.931037-966.015325c-249.521265 0-451.711775 202.226503-451.711775 451.711775s202.244499 451.711775 451.711775 451.711775 451.711775-202.226503 451.711775-451.711775-202.244499-451.711775-451.711775-451.711775zM583.751986 724.817434a53.80949 53.80949 0 1 1 53.80949-53.80949 53.773497 53.773497 0 0 1-53.80949 53.80949zM422.323515 78.959578A35.99297 35.99297 0 0 1 475.107206 47.35775L601.676485 78.959578a35.884991 35.884991 0 1 1 0 71.769983l-95.597329-23.917329L597.483304 492.626784a35.99297 35.99297 0 0 1-48.59051 48.590509l-126.587276-31.63782a35.866995 35.866995 0 1 1 0-71.73399l95.633322 23.881336L426.516696 95.94826a36.334903 36.334903 0 0 1-4.211178-16.952689z"  horiz-adv-x="1024" />

    
    <glyph glyph-name="fanhuidingbu" unicode="&#58900;" d="M902.360295 400.688528L541.706588 761.322068a39.608784 39.608784 0 0 1-57.376268 0L121.639705 398.631452a39.608784 39.608784 0 0 1 0-57.376267 39.608784 39.608784 0 0 1 57.376267 0l290.975323 293.032397v-721.307415a40.980167 40.980167 0 1 1 81.960335 0V634.287582l293.032398-290.975322a40.576819 40.576819 0 0 1 57.376267 57.376268zM146.425446 826.36195h731.149108c20.893432 0 34.808941 13.935677 34.808942 34.829109S898.467986 896 877.574554 896H146.425446C125.471512 896 111.596337 882.064323 111.596337 861.191059S125.471512 826.36195 146.425446 826.36195z"  horiz-adv-x="1024" />

    
    <glyph glyph-name="yijianfankui" unicode="&#58901;" d="M1022.200351 557.486116v1.061793a31.547838 31.547838 0 0 1-63.07768-1.061793v-441.921687c0-0.827838 0-1.63768 0.125976-2.447522v-134.037821a44.127381 44.127381 0 0 0-44.145378-44.091388H108.878735A44.127381 44.127381 0 0 0 64.787346-20.920914v755.852373A44.127381 44.127381 0 0 0 108.878735 779.022847h29.298277c0.827838 0 1.655677-0.125975 2.501512-0.125975h441.939683a31.547838 31.547838 0 0 1 0.701863 63.113673H108.878735A107.205062 107.205062 0 0 1 1.799649 734.913462v-755.852372A107.205062 107.205062 0 0 1 108.878735-128h806.24253a107.205062 107.205062 0 0 1 107.079086 107.079086V557.486116zM546.589244 424.006186c-9.898067 0-16.502777 3.293357-23.107487 9.898067a31.907768 31.907768 0 0 0 0 46.214974L929.464464 886.101933a31.925764 31.925764 0 0 0 46.214974 0 31.925764 31.925764 0 0 0 0-46.214973L569.696731 430.610896c-6.60471-6.60471-13.20942-6.60471-23.107487-6.60471zM235.124077 131.473322h428.49631a26.328858 26.328858 0 0 1 26.490826 26.040914c0 15.584956-10.419965 25.968928-26.004921 25.968927H236.095888c-15.764921 0-28.632408-13.533357-26.796767-29.172302a26.130896 26.130896 0 0 1 25.824956-22.837539zM235.124077 261.47993h298.489702a26.310861 26.310861 0 0 1 26.490826 26.022917c0 15.584956-10.401968 25.968928-25.986925 25.968928h-298.021792c-15.764921 0-28.632408-13.533357-26.796767-29.172302a26.1129 26.1129 0 0 1 25.824956-22.819543z"  horiz-adv-x="1024" />

    
    <glyph glyph-name="wenhao" unicode="&#58902;" d="M457.16471 72.714798A54.907276 54.907276 0 1 1 512 127.550088 54.925272 54.925272 0 0 1 457.16471 72.714798zM512-128C229.653146-128 0.053989 101.599156 0.053989 383.946011S229.653146 896 512 896s511.946011-229.599156 511.946011-511.946011S794.328858-128 512-128z m0 950.520351c-241.76478 0-438.466362-196.701582-438.466362-438.466362s196.701582-438.466362 438.466362-438.466362S950.466362 142.307206 950.466362 384.053989 753.746784 822.520351 512 822.520351zM512 199.158102a36.604851 36.604851 0 0 0-36.568858 36.568858v61.781933c0 59.838313 45.729069 105.585378 86.095185 145.933497 29.568225 29.568225 60.180246 60.180246 60.180246 84.58348 0 60.990088-49.184394 110.516415-109.778559 110.516415-61.565975 0-109.778559-47.456731-109.778559-108.104886a36.568858 36.568858 0 0 0-73.137715 0c0 99.970475 82.081968 181.242601 182.844288 181.242601s182.826292-82.423902 182.826292-183.65413c0-54.781301-41.481898-96.173216-81.61406-136.287381-31.871775-31.7458-64.643374-64.535395-64.643374-94.121617v-61.781934a36.622847 36.622847 0 0 0-36.424886-36.676836z"  horiz-adv-x="1024" />

    
    <glyph glyph-name="jingtanhao" unicode="&#58903;" d="M512.017996 271.66594A41.193954 41.193954 0 0 1 553.193954 312.913884V680.042179a41.175958 41.175958 0 1 1-82.333919 0v-367.128295a41.193954 41.193954 0 0 1 41.157961-41.247944zM460.530053 139.607733a51.487944 51.487944 0 1 1 51.50594 51.50594 51.487944 51.487944 0 0 1-51.50594-51.50594zM512.017996 896C229.689139 896 0 666.310861 0 384.017996S229.689139-128 512.017996-128 1024 101.689139 1024 384.017996 794.310861 896 512.017996 896z m0-946.777083c-239.749174 0-434.795079 195.045905-434.795079 434.795079S272.268822 818.777083 512.017996 818.777083s434.759086-195.009912 434.759087-434.759087-195.009912-434.795079-434.759087-434.795079z"  horiz-adv-x="1024" />

    
    <glyph glyph-name="fangdajing" unicode="&#58904;" d="M1011.118935-59.762282l-183.412479 183.50243a469.298472 469.298472 0 1 1-55.446519-55.446518l183.502431-183.412479c17.054932-17.054932 42.63733-17.054932 59.710252 0 12.701247 16.98297 12.701247 42.565368-4.353685 55.356567zM85.565056 426.483178c0 213.258609 170.603289 383.861899 383.861899 383.861899s383.879889-170.603289 383.879889-383.861899-170.62128-383.879889-383.879889-383.879889S85.565056 213.224569 85.565056 426.483178z"  horiz-adv-x="1024" />

    
    <glyph glyph-name="shezhi" unicode="&#58905;" d="M674.432967-127.996437a65.57887 65.57887 0 0 0-49.076174 21.82963c-16.196757 18.500296-67.288528 66.586668-109.166143 66.586668-41.589673 0-93.581263-48.392311-108.446287-65.344917a65.614863 65.614863 0 0 0-48.734243-21.451705 59.58607 59.58607 0 0 0-24.978998 5.398919l-1.34973 0.629874-127.270518 74.361112-1.277745 0.935812c-23.161363 16.952606-31.979597 50.101969-20.497896 77.114561 0 0.215957 11.733651 28.308332 11.733651 53.98919 0 77.744434-60.521883 141.001769-134.972976 141.001769h-5.398919c-21.307734 0-38.65626 19.796037-44.199151 50.389911-0.44991 2.465506-10.797838 60.539879-10.797838 106.28672S10.473903 487.480334 10.851828 489.855859c5.614876 30.989795 23.395316 50.911807 44.990992 50.389911h4.517095c74.397104 0 134.972976 63.257335 134.972976 141.001769 0 25.608873-11.643669 53.701248-11.769643 53.989191-11.463705 26.994595-2.591481 60.143958 20.67786 77.042574l1.313737 0.953809 134.379095 77.060572 1.385722 0.629873A60.215944 60.215944 0 0 0 365.938733 895.998542a66.712643 66.712643 0 0 0 48.842221-20.983798c15.908815-17.402516 66.154755-62.627461 106.826612-62.627461 40.293932 0 90.25193 44.343122 106.088759 61.421702A66.586668 66.586668 0 0 0 676.160622 894.396863a60.179951 60.179951 0 0 0 25.06898-5.254948l1.34973-0.629874L832.333353 813.215117l1.277744-0.935813c23.215352-16.934609 32.051583-50.083972 20.551885-77.11456 0-0.215957-11.733651-28.308332-11.73365-53.989191 0-77.744434 60.521883-141.001769 134.972976-141.001769h4.517096c21.595676 0.503899 39.412109-19.382119 44.990992-50.389911 0.44991-2.44751 10.797838-60.521883 10.797838-106.286719s-10.419914-103.821213-10.797838-106.28672c-5.596879-30.989795-23.395316-50.839821-44.990992-50.389911h-4.517096c-74.397104 0-134.972976-63.257335-134.972976-141.001769 0-25.608873 11.643669-53.683252 11.769643-53.989191 11.463705-26.994595 2.591481-60.125962-20.641867-77.042574l-1.29574-0.935813-131.913589-76.196744-1.385723-0.629874a59.262135 59.262135 0 0 0-24.529089-5.020995z m-3.9952 64.948996a8.152368 8.152368 0 0 1 3.9952-1.079783h0.215957L797.88825 6.976539c-2.969405 7.198559-16.574681 42.273536-16.574682 78.842215 0 109.364103 82.423497 198.968163 185.758808 204.583039 1.475705 8.584281 9.556087 56.850618 9.556087 93.077364s-8.062386 84.475087-9.556087 93.077365c-103.335311 5.614876-185.758808 95.218936-185.758808 204.583039 0 36.622668 13.641269 71.715641 16.592678 78.878207L676.71851 830.509654h-0.503899a9.430112 9.430112 0 0 1-4.643071-1.223755 343.857154 343.857154 0 0 0-44.847021-39.376116c-37.378516-27.480498-72.72344-41.391713-105.044968-41.391713-32.645464 0-68.27833 14.199157-105.890799 42.219547a348.57221 348.57221 0 0 0-45.09897 40.131965 9.466105 9.466105 0 0 1-4.679063 1.259748h-0.431914l-125.668839-72.093566c3.005398-7.306537 16.556685-42.309529 16.556685-78.806221 0-109.346107-82.405501-198.968163-185.740811-204.547047-1.493701-8.584281-9.574083-56.850618-9.574083-93.077364s8.080382-84.475087 9.574083-93.077364c103.335311-5.596879 185.740812-95.218936 185.740811-204.583039 0-36.676657-13.695258-71.841616-16.610674-78.9142l118.866201-69.466092h0.269946a8.368325 8.368325 0 0 1 3.977204 1.061787A351.649594 351.649594 0 0 0 408.572197-19.712117c38.116368 29.208152 74.343115 44.00119 107.654446 44.00119 33.653262 0 70.185948-15.080981 108.500276-44.829024a356.976527 356.976527 0 0 0 45.764838-42.50749zM516.550578 196.514591c-99.070164 0-179.676026 84.223137-179.676026 187.756408S417.570396 572.0634 516.550578 572.0634s179.676026-84.241134 179.676026-187.774405S615.692728 196.514591 516.550578 196.514591z m0 311.6616c-65.38091 0-118.560262-55.572873-118.560262-123.887196s53.179353-123.905192 118.560262-123.905192 118.560262 55.572873 118.560262 123.905192S582.003473 508.176191 516.550578 508.176191z"  horiz-adv-x="1037" />

    
    <glyph glyph-name="tuichu" unicode="&#58906;" d="M887.784839 896H124.058022C48.403375 896 3.017786 865.748939 3.017786 784.04768v-790.954572S-0.041513-130.376571 124.058022-127.965124h763.726817c75.582663 0 133.169454 69.590038 133.169453 151.291297v90.789175c0 18.157835-12.093226 30.269057-30.251061 30.269057S960.398183 132.273183 960.398183 114.115348v-90.753183c0-48.426892-30.251061-90.771179-72.613344-90.771179H124.058022c-42.362283 0-61.779829 10.257647-60.520118 60.502122V787.070986c2.357459 41.98437 18.157835 48.408896 60.520118 48.408896h763.726817c42.362283 0 72.613344-42.362283 72.613344-90.771179v-90.771179c0-18.139839 12.093226-30.251061 30.251061-30.251061s30.251061 12.111222 30.251061 30.251061V744.708703c0 81.701259-57.478816 151.291297-133.115466 151.291297zM730.518912 120.593862a26.741866 26.741866 0 0 1 38.727117 0L1012.586212 363.970036a26.72387 26.72387 0 0 1 0 38.709121l-244.743861 244.743861a27.389717 27.389717 0 0 1-38.727117-38.727117l197.756639-196.334964H423.941235a27.659655 27.659655 0 1 1 0-55.301315h502.930638L730.518912 159.320979a26.759862 26.759862 0 0 1 0-38.727117z"  horiz-adv-x="1024" />

    
    <glyph glyph-name="qiajihuo" unicode="&#58907;" d="M1019.257926 15.144042V831.428612C1019.383902 866.97167 989.023831 896 951.591142 896H685.675079c-32.177715 0-60.180246-22.17167-66.586995-52.621722-10.257996-48.194587-55.249209-83.107768-107.133075-83.107768S414.935958 795.129701 404.78594 843.234306C398.271213 873.756344 370.304675 896 338.12696 896H72.516837C35.066151 896 4.616098 866.97167 4.616098 831.554587v-866.09884c0-0.233954 0.107979-0.395923 0.107979-0.593884v-28.362461C4.724077-99.205624 35.210123-128 72.642812-128h878.858348c37.432689 0 67.882742 28.794376 67.882742 64.499402v78.050756c0 0.197961-0.125975 0.35993-0.125976 0.593884zM909.839297-62.366819H123.3929c-37.612654 0-50.678102 11.859684-50.678102 49.346362V59.163445H117.993954c15.854903 0 28.218489 9.88007 28.218489 22.495606S133.830861 104.154657 117.993954 104.154657H72.732794L72.642812 797.199297A33.977364 33.977364 0 0 0 106.764148 831.212654l206.221722-0.683867a33.419473 33.419473 0 0 0 31.475852-21.883725c24.42123-66.586995 91.440141-113.269877 167.367311-113.269877s143.234025 46.376942 167.367311 113.845764a33.725413 33.725413 0 0 0 31.7458 21.919719h206.257715A34.067346 34.067346 0 0 0 951.231213 797.019332v-692.864675h-44.991213c-15.890896 0-28.218489-9.898067-28.218489-22.495606S890.295114 59.163445 906.24 59.163445h44.991213v-60.864113c-0.557891-34.517258-6.24478-60.666151-41.391916-60.666151zM285.793181 104.154657h-51.235993c-15.890896 0-28.218489-9.898067-28.218489-22.495606s12.327592-22.495606 28.218489-22.495606h51.235993c15.764921 0 28.236485 9.88007 28.236485 22.495606S301.558102 104.154657 285.793181 104.154657zM453.700387 104.154657h-51.235993c-15.890896 0-28.218489-9.898067-28.218489-22.495606s12.327592-22.495606 28.218489-22.495606h51.235993c15.764921 0 28.218489 9.88007 28.218488 22.495606s-12.417575 22.495606-28.218488 22.495606zM621.607592 104.154657h-51.235993c-15.890896 0-28.218489-9.898067-28.218488-22.495606s12.327592-22.495606 28.218488-22.495606h51.235993c15.764921 0 28.218489 9.88007 28.218489 22.495606s-12.417575 22.495606-28.218489 22.495606zM789.514798 104.154657h-51.235993c-15.890896 0-28.218489-9.898067-28.218489-22.495606s12.327592-22.495606 28.218489-22.495606h51.235993c15.764921 0 28.218489 9.88007 28.218488 22.495606s-12.417575 22.495606-28.218488 22.495606zM650.90587 429.747065s27.300668 1.583691 28.452443 28.668401c0.66587 15.692935-12.777504 28.434446-28.452443 28.434446h-110.372443v24.187276l120.93638 118.776801a28.614411 28.614411 0 0 1-3.599297 34.35529c-13.857293 11.715712-28.36246 12.831494-40.510088 2.123586l-104.847522-103.443796-111.00232 108.968717c-11.319789 10.006046-30.252091 8.998243-40.150158-2.375536-14.18123-15.674938-3.599297-34.71522-3.599297-34.71522l125.633462-122.862004v-25.051107l-119.028752-1.439719a28.560422 28.560422 0 0 1-19.796134-27.120703c0-23.197469 19.796134-28.560422 19.796134-28.560421h119.028752v-43.839438l-116.383269-0.089982s-22.47761-5.021019-22.441617-28.434447c0-24.331248 22.675571-28.596415 22.675571-28.596415h116.149315v-116.149314s4.013216-21.14587 28.524429-21.14587c14.8471 0 27.894552 10.204007 28.542425 19.994095v117.355079h110.390439s28.452443 2.627487 28.452443 28.668401a28.506432 28.506432 0 0 1-28.452443 28.452442h-110.318453v43.839438z"  horiz-adv-x="1024" />

    
    <glyph glyph-name="guanbi" unicode="&#58908;" d="M566.544691 384.0071L1012.707362 830.16977a38.565933 38.565933 0 0 1-54.528593 54.528594L511.998101 438.553689 65.853427 884.71636A38.565933 38.565933 0 0 1 11.306837 830.16977l446.162671-446.144674L11.306837-62.155571a38.565933 38.565933 0 1 1 54.54659-54.54659L511.998101 329.478506l446.180668-446.180667a38.565933 38.565933 0 0 1 54.528593 54.54659L566.544691 384.0071z"  horiz-adv-x="1024" />

    


  </font>
</defs>
</svg>
